<?xml version="1.0" encoding="utf-8"?><!-- Uploaded to: SVG Repo, www.svgrepo.com, Generator: SVG Repo Mixer Tools -->
<svg fill="#000000" width="800px" height="800px" viewBox="0 0 24 24" id="phone-square" data-name="Flat Line" xmlns="http://www.w3.org/2000/svg" class="icon flat-line"><path id="secondary" d="M19,3H5A2,2,0,0,0,3,5V19a2,2,0,0,0,2,2H19a2,2,0,0,0,2-2V5A2,2,0,0,0,19,3Zm-8.82,7.34L8.36,11.62A9.42,9.42,0,0,1,7,8.57a.82.82,0,0,1,.45-.91l.66-.43a1.39,1.39,0,0,1,2,.51c.13.25.27.49.41.72A1.4,1.4,0,0,1,10.18,10.34Zm6.59,5.53-.43.66a.82.82,0,0,1-.91.45,9.42,9.42,0,0,1-3-1.34l1.28-1.82a1.4,1.4,0,0,1,1.88-.36c.23.14.47.28.72.41A1.39,1.39,0,0,1,16.77,15.87Z" style="fill: rgb(44, 169, 188); stroke-width: 2;"></path><path id="primary" d="M12.38,15.64a13.45,13.45,0,0,1-2.22-1.8,13.45,13.45,0,0,1-1.8-2.22" style="fill: none; stroke: rgb(0, 0, 0); stroke-linecap: round; stroke-linejoin: round; stroke-width: 2;"></path><path id="primary-2" data-name="primary" d="M19,21H5a2,2,0,0,1-2-2V5A2,2,0,0,1,5,3H19a2,2,0,0,1,2,2V19A2,2,0,0,1,19,21Zm-2.66-4.47.43-.66a1.39,1.39,0,0,0-.51-2c-.25-.13-.49-.27-.72-.41a1.4,1.4,0,0,0-1.88.36l-1.28,1.82a9.42,9.42,0,0,0,3,1.34A.82.82,0,0,0,16.34,16.53ZM7.47,7.66l.66-.43a1.39,1.39,0,0,1,2,.51c.13.25.27.49.41.72a1.4,1.4,0,0,1-.36,1.88L8.36,11.62A9.42,9.42,0,0,1,7,8.57.82.82,0,0,1,7.47,7.66Z" style="fill: none; stroke: rgb(0, 0, 0); stroke-linecap: round; stroke-linejoin: round; stroke-width: 2;"></path></svg>